PathFileType	4	(X/Y/Z)	c:/Users/goper/Files/vsCode/490R/osim_files/A03/A03_Fast_03.trc
DataRate	CameraRate	NumFrames	NumMarkers	Units                	OrigDataRate	OrigDataStartFrame	OrigNumFrames
250.00	250.00	7	36	mm	250.0	1216	2431
                Frame#	Time	LPSIS			LASIS			LTH1			LTH2			LTH3			LTH4			LLFE			LMFE			LSH1			LSH2			LSH3			LSH4			LLMAL			LMMAL			LCAL			LMTP5			LTOE			LMTP1			RPSIS			RASIS			RTH1			RTH2			RTH3			RTH4			RLFE			RMFE			RSH1			RSH2			RSH3			RSH4			RLMAL			RMMAL			RCAL			RMTP1			RTOE			RMTP5		
		X1	Y1	Z1	X2	Y2	Z2	X3	Y3	Z3	X4	Y4	Z4	X5	Y5	Z5	X6	Y6	Z6	X7	Y7	Z7	X8	Y8	Z8	X9	Y9	Z9	X10	Y10	Z10	X11	Y11	Z11	X12	Y12	Z12	X13	Y13	Z13	X14	Y14	Z14	X15	Y15	Z15	X16	Y16	Z16	X17	Y17	Z17	X18	Y18	Z18	X19	Y19	Z19	X20	Y20	Z20	X21	Y21	Z21	X22	Y22	Z22	X23	Y23	Z23	X24	Y24	Z24	X25	Y25	Z25	X26	Y26	Z26	X27	Y27	Z27	X28	Y28	Z28	X29	Y29	Z29	X30	Y30	Z30	X31	Y31	Z31	X32	Y32	Z32	X33	Y33	Z33	X34	Y34	Z34	X35	Y35	Z35	X36	Y36	Z36

1216	4.86000	-794.87518	1036.12292	344.73660	-1031.35657	933.29889	436.70007	-1119.60559	625.16241	473.81049	-1146.22607	590.97357	469.26477	-1169.42004	655.57599	449.80133	-1186.82642	615.15308	448.16364	-1147.61035	543.87372	460.71393	-1168.31018	548.18500	305.71625	-1121.41113	451.49234	455.75571	-1132.45410	404.32428	452.14322	-1183.44604	457.06512	449.41165	-1183.21497	409.85233	442.63049	-1193.42651	93.69678	403.89810	-1201.44531	102.74495	306.60342	-1124.75366	76.92137	352.21948	-1347.52271	47.34693	409.41769	-1372.52271	82.30618	341.09467	-1342.31201	59.95135	295.72482	-783.88501	1049.34058	263.51031	-991.47418	923.87915	131.43906	-814.16418	586.91492	97.72933	-807.06378	543.66510	102.60081	-872.38904	568.94189	88.22015	-858.30176	527.58838	95.04874	-817.46338	503.57053	112.79956	-879.72229	486.19870	219.22726	-738.96692	479.91690	126.90582	-709.41028	449.68481	119.36858	-780.43939	434.81696	113.44014	-741.58667	407.70612	109.04816	-526.31036	195.66074	192.35448	-565.16455	167.20799	265.79895	-462.47879	190.11783	261.26395	-621.31506	46.84652	293.75183	-644.94287	61.48284	238.80922	-592.39392	43.86436	177.24792
1217	4.86400	-800.23389	1036.91064	344.33481	-1036.74609	934.14868	437.14209	-1124.37268	625.59875	475.44751	-1150.53296	591.37378	470.93915	-1174.07300	656.04688	451.69989	-1191.16943	615.43915	449.82816	-1152.23633	544.10675	462.23303	-1173.30847	548.67810	307.32730	-1125.14075	452.00623	456.94125	-1135.79919	404.76123	453.27368	-1187.30896	457.04449	450.74802	-1186.55554	409.84433	443.83313	-1193.73621	93.69193	404.02307	-1201.84216	102.89330	306.78339	-1125.01331	77.19619	352.28317	-1347.71423	46.73739	409.60388	-1372.87085	81.62312	341.39136	-1342.67200	59.58110	295.95862	-789.73022	1049.77051	262.97195	-997.64856	925.05530	131.78290	-824.24060	586.74542	96.18801	-817.35034	543.47845	101.02680	-882.58386	569.32764	86.94862	-868.88458	527.45905	93.61870	-828.04163	503.43817	111.21801	-889.07617	485.92392	218.31075	-749.48785	480.92453	124.85841	-719.58124	451.02280	117.24857	-790.53131	435.18073	111.85051	-751.42065	408.55292	107.19004	-533.07739	199.56682	190.43623	-571.77612	170.33536	263.60934	-469.78119	197.15509	258.99554	-623.39459	48.29445	292.92334	-646.99249	61.15952	237.88174	-593.74445	44.26650	176.72852
1218	4.86800	-805.55579	1037.77368	344.02380	-1042.15063	935.05829	437.58646	-1128.43152	625.93842	476.88461	-1154.44556	591.63824	472.56039	-1178.29077	656.22363	453.50806	-1195.23938	615.52954	451.69131	-1156.70398	544.31854	463.67752	-1178.13269	549.10876	308.87247	-1128.54028	452.63300	458.13013	-1139.05640	405.12732	454.30548	-1191.05652	456.97586	452.04086	-1189.86218	409.83374	444.97180	-1193.98425	93.68118	404.14819	-1202.21582	102.94884	306.95343	-1125.21252	77.41410	352.29343	-1347.84033	46.34119	409.75284	-1373.26514	81.21056	341.68954	-1342.98535	59.36982	296.15030	-795.42926	1050.11169	262.62885	-1003.92377	926.26630	132.11992	-834.16156	586.69543	94.60363	-827.82812	543.29260	99.51820	-892.91510	569.56818	85.57813	-879.40747	527.62567	92.16787	-838.79773	503.40433	109.74236	-900.10278	486.35803	216.63570	-760.36273	481.88776	122.75403	-729.97729	452.37762	115.21674	-800.76703	435.69684	110.15810	-762.65759	409.55869	105.13547	-540.53589	203.50826	188.13379	-578.45551	173.75908	261.65698	-477.52911	204.36241	256.58185	-625.32336	49.91175	292.19040	-649.12891	60.77409	237.06601	-595.20923	44.94774	176.20189
1219	4.87200	-810.88202	1038.59387	343.81970	-1047.57190	936.02637	438.03195	-1132.16638	626.17664	478.16769	-1158.07495	591.79724	474.14035	-1182.39893	656.26971	455.43088	-1199.88184	616.21698	453.88330	-1161.04907	544.49518	465.08377	-1182.76880	549.50360	310.30038	-1132.40833	452.95670	459.21237	-1142.16992	405.51129	455.33191	-1194.62170	456.84564	453.25131	-1193.02869	409.73477	446.03851	-1194.08594	93.64903	404.29239	-1202.41321	103.02824	307.06784	-1125.35840	77.55647	352.36597	-1347.89856	46.05997	409.91254	-1373.31421	81.04125	341.91861	-1343.06335	59.28707	296.30508	-800.79755	1050.51147	262.54227	-1010.05725	927.55469	132.38383	-844.69940	586.52856	93.31950	-838.42871	543.11407	98.01532	-903.31598	569.79865	84.34461	-890.03638	527.79376	90.77377	-849.56537	503.39771	108.24348	-910.52643	486.48816	215.56445	-771.14447	483.01865	120.87875	-740.57404	453.82977	113.21098	-810.88757	436.56619	108.45874	-771.38391	410.88986	103.24081	-548.21112	207.38489	185.97768	-585.61145	177.10512	259.65677	-485.65848	211.55074	254.02641	-627.21381	51.76434	291.48123	-651.60718	60.75282	236.29907	-596.97809	46.04621	175.53708
1220	4.87600	-816.24115	1039.42212	343.71317	-1053.01135	937.05151	438.47754	-1135.34888	626.40765	479.22784	-1161.38696	591.92377	475.74362	-1186.32532	656.21918	457.40106	-1203.66931	616.12878	456.10229	-1165.25146	544.64435	466.36609	-1187.14734	549.84021	311.57489	-1135.81116	453.38104	460.30646	-1145.23462	405.86270	456.31421	-1198.17102	456.80765	454.36520	-1196.07678	409.65335	447.04352	-1194.19519	93.59753	404.41812	-1202.61145	103.19031	306.93781	-1125.48193	77.65526	352.45398	-1347.97351	45.75957	410.02847	-1373.40527	80.84177	342.10889	-1343.22815	59.19555	296.45810	-806.31616	1050.98877	262.47617	-1016.27966	928.88373	132.69196	-855.10504	586.42615	91.93551	-848.72333	543.14276	96.32095	-913.85455	570.08990	83.16017	-900.87689	527.92004	89.54975	-860.58887	503.40613	106.79051	-920.90186	486.63574	214.65150	-782.04480	484.17825	119.07354	-751.59088	455.23599	110.92570	-821.37482	437.30838	106.87674	-781.80719	411.82187	101.99339	-556.20087	211.28316	183.77933	-592.62921	180.63133	257.82700	-494.16806	218.75270	251.52757	-629.30432	53.97085	290.64545	-654.32269	60.84598	235.48425	-598.86713	47.33965	174.83018
1221	4.88000	-821.57776	1040.27002	343.72516	-1058.47046	938.13208	438.92191	-1138.97107	626.51099	480.44778	-1164.79749	591.96198	477.38309	-1190.13550	656.13007	459.33035	-1207.27783	615.98236	458.32513	-1169.26599	544.77002	467.50955	-1191.31348	550.14526	312.73581	-1139.19324	453.73120	461.27060	-1148.21436	406.15591	457.19138	-1201.50378	456.62817	455.38004	-1199.07581	409.59113	447.94046	-1194.35315	93.44109	404.46671	-1202.84192	103.26161	307.12576	-1125.64990	77.78346	352.57208	-1348.09326	45.40053	410.11383	-1373.58386	80.52753	342.21707	-1343.36621	59.01587	296.51807	-811.86151	1051.48352	262.42627	-1022.49512	930.19507	132.98711	-865.60077	586.35468	90.54646	-859.80524	542.89661	95.16936	-924.56622	570.30444	82.12842	-911.73834	528.16675	88.33084	-871.58203	503.48792	105.36018	-931.19171	486.89267	213.77623	-793.05963	485.48944	117.27930	-762.16455	456.80789	109.23386	-831.88654	438.14767	105.32801	-790.75317	414.99619	100.35914	-564.42175	215.28818	181.64323	-599.92120	184.03795	255.96179	-503.09109	225.97685	248.96652	-631.57892	56.40560	289.73309	-656.83435	60.86883	234.71602	-601.04156	49.39758	173.93904
1222	4.88400	-826.92590	1041.09973	343.77148	-1063.95093	939.26678	439.36404	-1142.13281	626.77527	481.38501	-1167.96033	591.93005	478.79828	-1193.91040	655.96191	461.01596	-1210.79419	615.70941	460.27725	-1173.34497	544.86108	468.57739	-1195.29016	550.35406	313.80765	-1142.42163	454.03931	462.15628	-1151.07861	406.41824	457.98862	-1204.73950	456.52151	456.28671	-1201.99646	409.47806	448.74033	-1194.64600	93.19968	404.34927	-1203.08862	103.30304	307.24203	-1125.83960	77.96373	352.64465	-1348.22998	44.97593	410.15091	-1373.79565	80.03590	342.20163	-1343.59351	58.67299	296.53775	-817.40747	1051.91650	262.39856	-1029.77100	931.67816	132.90984	-876.15283	586.36548	89.26027	-870.61719	542.79260	93.82500	-935.21985	570.76367	81.19865	-922.64307	528.44934	87.24870	-882.57166	503.69745	103.99075	-941.58081	487.29980	213.05652	-804.14130	486.80298	115.59694	-772.88330	458.46262	107.49482	-842.55566	439.08139	103.84293	-800.66870	415.89719	98.29743	-572.79755	219.36133	179.56573	-607.47198	187.52431	254.10828	-512.32312	233.26648	246.52989	-633.81097	58.93125	288.95428	-660.08002	61.19416	233.63097	-602.98236	51.35310	173.37578
